<svg width="753" height="100" viewBox="0 0 753 100" fill="none" xmlns="http://www.w3.org/2000/svg">
<path d="M47.4546 16.5643C69.988 16.5643 87.4477 32.681 87.4477 57.9005C87.4477 83.1201 69.988 99.2367 47.4546 99.2367C36.7101 99.2367 28.0549 95.8045 22.235 88.7908L19.2556 98.0429H0L0 0.3156H23.2796V26.2642C29.2487 19.6981 37.4563 16.5643 47.4546 16.5643ZM43.4254 80.1355C55.0652 80.1355 63.8697 71.7787 63.8697 57.9005C63.8697 44.0223 55.0652 35.6655 43.4254 35.6655C31.7856 35.6655 22.9811 44.0223 22.9811 57.9005C22.9811 71.7787 31.7856 80.1355 43.4254 80.1355Z" fill="#0026FF"/>
<path d="M117.282 28.3534C122.953 20.5935 127.503 16.5643 139.889 16.5643V38.0532C137.949 37.904 136.457 37.7547 134.666 37.7547C121.833 37.7547 118.327 44.7684 118.327 60.139V98.0429H95.047V17.7581H117.282V28.3534Z" fill="#0026FF"/>
<path d="M213.756 17.7581H234.497V98.0429H212.262V88.7908C206.442 95.8045 197.936 99.2367 187.191 99.2367C164.509 99.2367 147.049 83.1201 147.049 57.9005C147.049 32.681 164.509 16.5643 187.191 16.5643C197.04 16.5643 205.397 19.6981 211.217 26.2642L213.756 17.7581ZM191.22 80.1355C202.711 80.1355 211.665 71.7787 211.665 57.9005C211.665 44.0223 202.711 35.6655 191.22 35.6655C179.581 35.6655 170.627 44.0223 170.627 57.9005C170.627 71.7787 179.581 80.1355 191.22 80.1355Z" fill="#0026FF"/>
<path d="M290.863 16.5643C309.815 16.5643 324.141 27.6072 324.141 52.0806V98.0429H300.861V55.6621C300.861 42.6793 294.892 36.7101 284.595 36.7101C273.403 36.7101 265.345 43.5746 265.345 58.3482V98.0429H242.065V17.7581H261.756L264.3 27.1595C270.568 20.295 279.969 16.5643 290.863 16.5643Z" fill="#0026FF"/>
<path d="M395.63 0.3156H418.909V98.0429H399.756L396.674 88.7908C390.854 95.8045 382.348 99.2367 371.604 99.2367C348.921 99.2367 331.461 83.1201 331.461 57.9005C331.461 32.681 348.921 16.5643 371.604 16.5643C381.453 16.5643 389.81 19.6981 395.63 26.2642V0.3156ZM375.633 80.1355C387.124 80.1355 396.077 71.7787 396.077 57.9005C396.077 44.0223 387.124 35.6655 375.633 35.6655C363.993 35.6655 355.04 44.0223 355.04 57.9005C355.04 71.7787 363.993 80.1355 375.633 80.1355Z" fill="#0026FF"/>
<path d="M470.925 16.5643C493.459 16.5643 510.918 32.681 510.918 57.9005C510.918 83.1201 493.459 99.2367 470.925 99.2367C460.181 99.2367 451.525 95.8045 445.706 88.7908L442.756 98.0429H423.471V0.3156H446.75V26.2642C452.719 19.6981 460.927 16.5643 470.925 16.5643ZM466.896 80.1355C478.536 80.1355 487.34 71.7787 487.34 57.9005C487.34 44.0223 478.536 35.6655 466.896 35.6655C455.256 35.6655 446.452 44.0223 446.452 57.9005C446.452 71.7787 455.256 80.1355 466.896 80.1355Z" fill="#0026FF"/>
<path d="M563.958 80.5832C572.464 80.5832 578.583 78.0463 584.104 72.8233L596.49 86.2539C589.029 94.7599 577.837 99.2367 563.362 99.2367C535.605 99.2367 517.548 81.777 517.548 57.9005C517.548 33.8748 535.754 16.5643 560.526 16.5643C583.209 16.5643 601.862 31.4871 602.012 57.1544L542.619 68.645C546.051 76.554 553.512 80.5832 563.958 80.5832ZM560.526 34.1732C548.886 34.1732 540.828 41.9331 540.38 55.5129L579.478 47.9022C577.24 39.6947 570.226 34.1732 560.526 34.1732Z" fill="#0026FF"/>
<path d="M675.256 17.7581H696.154V98.0429H673.919V88.7908C668.099 95.8045 659.593 99.2367 648.848 99.2367C626.166 99.2367 608.706 83.1201 608.706 57.9005C608.706 32.681 626.166 16.5643 648.848 16.5643C658.697 16.5643 667.054 19.6981 672.874 26.2642L675.256 17.7581ZM652.877 80.1355C664.368 80.1355 673.322 71.7787 673.322 57.9005C673.322 44.0223 664.368 35.6655 652.877 35.6655C641.238 35.6655 632.284 44.0223 632.284 57.9005C632.284 71.7787 641.238 80.1355 652.877 80.1355Z" fill="#0026FF"/>
<path d="M745.954 77.7479L752.072 94.163C747.297 97.5952 740.283 99.2367 733.269 99.2367C714.168 99.2367 703.274 89.5369 703.274 70.4357V0H726.554V19.5489H738.401V37.4563H726.554V70.1372C726.554 77.0017 730.135 80.7324 736.403 80.7324C739.835 80.7324 743.267 79.6878 745.954 77.7479Z" fill="#0026FF"/>
</svg>
